<svg width="24" height="24" viewBox="0 0 24 24" fill="none" xmlns="http://www.w3.org/2000/svg">
<path d="M16.8402 10.4937L16.5126 10.1638C16.4095 10.0608 16.2724 10.0041 16.1258 10.0041C15.9793 10.0041 15.8419 10.0608 15.7389 10.1638L12.0022 13.9006L8.26131 10.1597C8.15838 10.0567 8.02107 10 7.87456 10C7.72805 10 7.59066 10.0567 7.48765 10.1597L7.16 10.4875C6.94667 10.7007 6.94667 11.0479 7.16 11.2611L11.614 15.7311C11.7169 15.834 11.8541 15.9066 12.0019 15.9066H12.0036C12.1502 15.9066 12.2874 15.8339 12.3903 15.7311L16.8402 11.2732C16.9433 11.1703 16.9998 11.029 17 10.8824C17 10.7359 16.9433 10.5965 16.8402 10.4937Z" fill="black"/>
</svg>
