<svg width="24" height="24" viewBox="0 0 24 24" fill="none" xmlns="http://www.w3.org/2000/svg">
<path d="M22.0833 13H1.91667C1.41066 13 1 12.552 1 12C1 11.448 1.41066 11 1.91667 11H22.0833C22.5893 11 23 11.448 23 12C23 12.552 22.5893 13 22.0833 13Z" fill="black"/>
<path d="M22.0833 7H1.91667C1.41066 7 1 6.552 1 6C1 5.448 1.41066 5 1.91667 5H22.0833C22.5893 5 23 5.448 23 6C23 6.552 22.5893 7 22.0833 7Z" fill="black"/>
<path d="M22.0833 19H1.91667C1.41066 19 1 18.552 1 18C1 17.448 1.41066 17 1.91667 17H22.0833C22.5893 17 23 17.448 23 18C23 18.552 22.5893 19 22.0833 19Z" fill="black"/>
</svg>
